<svg width="178" height="64" viewBox="0 0 178 64" fill="none" xmlns="http://www.w3.org/2000/svg">
<g clip-path="url(#clip0_152_814)">
<path d="M19.8473 8H0.333984V54.6667L19.8473 8Z" fill="#FA0C00"/>
<path d="M33.5762 8H53.0641V54.6667L33.5762 8Z" fill="#FA0C00"/>
<path d="M26.7116 25.2031L39.1314 54.6701H30.9829L27.2709 45.2885H18.1816L26.7116 25.2031Z" fill="#FA0C00"/>
<path d="M84.8974 37.6798L87.1984 44.2775C87.2746 44.4427 87.389 44.519 87.5924 44.519H92.0163C92.2578 44.519 92.296 44.4046 92.2578 44.1631L83.1177 18.7767C83.0796 18.5733 83.0414 18.5352 82.8381 18.5352H77.3464C77.1938 18.5352 77.1048 18.6496 77.1048 18.8148C77.0285 20.1496 76.9142 20.5564 76.7489 20.9505L68.6003 44.1249C68.5622 44.4046 68.6512 44.519 68.88 44.519H72.8335C73.0751 44.519 73.1895 44.4427 73.2784 44.2012L75.4522 37.6798H84.8974ZM76.7108 33.3704C77.9057 29.7601 79.482 25.1328 80.1176 22.4887H80.1558C80.9439 25.2599 82.7999 30.7516 83.6389 33.3704H76.7108Z" fill="#FA0C00"/>
<path d="M104.012 44.9111C106.389 44.9111 108.918 44.4789 111.486 43.3729C111.69 43.2966 111.728 43.2076 111.728 43.017C111.652 42.3051 111.563 41.2754 111.563 40.4872V16.5882C111.563 16.4357 111.563 16.3594 111.372 16.3594H107.063C106.897 16.3594 106.821 16.4357 106.821 16.639V24.7367C106.147 24.6605 105.677 24.6223 105.118 24.6223C98.1639 24.6223 93.8926 29.2115 93.8926 34.9447C93.8926 41.5932 98.2783 44.9111 104.012 44.9111ZM106.821 40.4872C106.109 40.716 105.321 40.805 104.52 40.805C101.367 40.805 98.7868 39.0253 98.7868 34.7032C98.7868 30.8768 101.444 28.614 104.965 28.614C105.677 28.614 106.3 28.6903 106.821 28.8937V40.4872Z" fill="#FA0C00"/>
<path d="M125.476 24.6211C119.539 24.6211 115.865 29.1721 115.865 34.7909C115.865 39.8122 118.789 44.9098 125.387 44.9098C130.967 44.9098 134.883 40.8038 134.883 34.6638C134.883 29.2484 131.565 24.6211 125.476 24.6211ZM125.234 28.6127C128.59 28.6127 130.014 31.4984 130.014 34.7909C130.014 38.8588 127.916 40.8801 125.476 40.8801C122.463 40.8801 120.683 38.3503 120.683 34.7019C120.683 30.9518 122.577 28.6127 125.234 28.6127Z" fill="#FA0C00"/>
<path d="M139.338 16.3594C139.173 16.3594 139.059 16.4357 139.059 16.639V43.6907C139.059 43.8051 139.173 44.0085 139.338 44.0467C141.232 44.6314 143.215 44.9111 145.262 44.9111C151.122 44.9111 156.818 41.2754 156.818 33.9531C156.818 28.6521 153.182 24.6223 147.487 24.6223C146.177 24.6223 144.957 24.8257 143.889 25.1817L143.838 16.6772C143.838 16.3975 143.762 16.3594 143.482 16.3594H139.338ZM151.949 34.4362C151.949 38.8219 148.949 40.8813 145.707 40.8813C145.033 40.8813 144.436 40.8432 143.889 40.6779V29.1352C144.512 28.8937 145.262 28.6903 146.648 28.6903C149.775 28.6903 151.949 30.6734 151.949 34.4362Z" fill="#FA0C00"/>
<path d="M172.899 35.8587C174.831 35.8587 176.42 35.8206 176.967 35.6935C177.17 35.6553 177.247 35.5791 177.285 35.4138C177.399 34.9816 177.45 34.079 177.45 32.973C177.45 29.2102 175.187 24.6211 169.34 24.6211C163.365 24.6211 160.047 29.4899 160.047 34.9816C160.047 39.8504 162.615 44.9098 169.81 44.9098C172.505 44.9098 174.246 44.4776 175.746 43.7657C175.899 43.6895 175.975 43.5623 175.975 43.3335V40.0411C175.975 39.8504 175.861 39.8122 175.746 39.8885C174.246 40.5241 172.619 40.8419 170.84 40.8419C166.81 40.8419 164.979 38.6173 164.865 35.8587H172.899ZM164.865 32.4518C165.183 30.5196 166.403 28.4221 169.136 28.4221C172.149 28.4221 172.937 30.9518 172.937 32.0959C172.937 32.134 172.937 32.2993 172.937 32.4137C172.772 32.4518 172.263 32.4518 170.763 32.4518H164.865Z" fill="#FA0C00"/>
</g>
<defs>
<clipPath id="clip0_152_814">
<rect width="177.333" height="64" fill="white" transform="translate(0.333984)"/>
</clipPath>
</defs>
</svg>
