<svg width="147" height="64" viewBox="0 0 147 64" fill="none" xmlns="http://www.w3.org/2000/svg">
<g clip-path="url(#clip0_152_816)">
<path fill-rule="evenodd" clip-rule="evenodd" d="M90.9132 50.4098C82.4285 56.6637 70.1303 60.0004 59.5419 60.0004C44.6951 60.0004 31.3293 54.5092 21.2175 45.3761C20.423 44.6579 21.1348 43.6792 22.0882 44.2385C33.0008 50.5877 46.4938 54.4075 60.4317 54.4075C69.8316 54.4075 80.1722 52.4627 89.6803 48.4268C91.1166 47.8167 92.3178 49.3675 90.9132 50.4098Z" fill="#FF9900"/>
<path fill-rule="evenodd" clip-rule="evenodd" d="M94.4407 46.374C93.3603 44.9885 87.2716 45.7194 84.5387 46.0435C83.7061 46.1452 83.579 45.4207 84.3289 44.8995C89.1783 41.4865 97.1355 42.4717 98.0634 43.6157C98.9913 44.766 97.8219 52.7424 93.2649 56.5494C92.5658 57.1341 91.8985 56.8227 92.2099 56.0473C93.2331 53.4923 95.5275 47.7659 94.4407 46.374Z" fill="#FF9900"/>
<path fill-rule="evenodd" clip-rule="evenodd" d="M84.7304 20.8088V17.4911C84.7304 16.989 85.1117 16.6522 85.5693 16.6522H100.422C100.899 16.6522 101.28 16.9954 101.28 17.4911V20.3321C101.274 20.8088 100.874 21.4316 100.162 22.4167L92.4652 33.4056C95.3252 33.3357 98.3441 33.7615 100.937 35.2233C101.522 35.5538 101.681 36.0368 101.725 36.5135V40.0536C101.725 40.5366 101.191 41.1022 100.632 40.8099C96.0625 38.4138 89.9928 38.1532 84.9401 40.8353C84.4253 41.115 83.8851 40.5557 83.8851 40.0726V36.7105C83.8851 36.1703 83.8914 35.2487 84.4317 34.4289L93.3486 21.6413H85.5884C85.1117 21.6413 84.7304 21.3045 84.7304 20.8088Z" fill="black"/>
<path fill-rule="evenodd" clip-rule="evenodd" d="M30.5487 41.5091H26.0298C25.5976 41.4773 25.2544 41.1531 25.2227 40.74V17.5484C25.2227 17.0844 25.6104 16.7158 26.0934 16.7158H30.3072C30.7457 16.7348 31.0953 17.0717 31.127 17.4912V20.5228H31.2097C32.3092 17.5929 34.3748 16.2264 37.1585 16.2264C39.9868 16.2264 41.7536 17.5929 43.0247 20.5228C44.1179 17.5929 46.603 16.2264 49.266 16.2264C51.16 16.2264 53.2319 17.0081 54.4967 18.7623C55.9267 20.7135 55.6343 23.5481 55.6343 26.0331L55.628 40.6701C55.628 41.1341 55.2403 41.5091 54.7572 41.5091H50.2447C49.7935 41.4773 49.4312 41.115 49.4312 40.6701V28.3783C49.4312 27.3996 49.5202 24.959 49.3041 24.0311C48.9673 22.474 47.9567 22.0354 46.6475 22.0354C45.5543 22.0354 44.4103 22.7663 43.9463 23.9358C43.4824 25.1052 43.5269 27.0627 43.5269 28.3783V40.6701C43.5269 41.1341 43.1392 41.5091 42.6561 41.5091H38.1436C37.686 41.4773 37.3301 41.115 37.3301 40.6701L37.3238 28.3783C37.3238 25.7916 37.7496 21.9846 34.54 21.9846C31.2923 21.9846 31.4194 25.6963 31.4194 28.3783V40.6701C31.4194 41.1341 31.0317 41.5091 30.5487 41.5091Z" fill="black"/>
<path fill-rule="evenodd" clip-rule="evenodd" d="M114.068 16.2264C120.773 16.2264 124.402 21.9846 124.402 29.3063C124.402 36.3801 120.392 41.9921 114.068 41.9921C107.483 41.9921 103.899 36.2339 103.899 29.0584C103.899 21.8384 107.528 16.2264 114.068 16.2264ZM114.106 20.9613C110.776 20.9613 110.566 25.4992 110.566 28.3275C110.566 31.1621 110.521 37.2127 114.068 37.2127C117.57 37.2127 117.735 32.3315 117.735 29.3571C117.735 27.3996 117.652 25.0607 117.061 23.2049C116.553 21.5905 115.542 20.9613 114.106 20.9613Z" fill="black"/>
<path fill-rule="evenodd" clip-rule="evenodd" d="M133.097 41.5091H128.597C128.146 41.4773 127.783 41.115 127.783 40.6701L127.777 17.4721C127.815 17.0463 128.19 16.7158 128.648 16.7158H132.836C133.23 16.7348 133.554 17.0018 133.643 17.3641V20.9105H133.726C134.991 17.739 136.764 16.2264 139.884 16.2264C141.912 16.2264 143.889 16.9573 145.16 18.9593C146.342 20.8152 146.342 23.9358 146.342 26.1793V40.7782C146.291 41.1849 145.916 41.5091 145.471 41.5091H140.939C140.526 41.4773 140.183 41.1722 140.139 40.7782V28.1813C140.139 25.6454 140.431 21.9337 137.31 21.9337C136.211 21.9337 135.2 22.671 134.698 23.7896C134.063 25.2069 133.98 26.6178 133.98 28.1813V40.6701C133.974 41.1341 133.58 41.5091 133.097 41.5091Z" fill="black"/>
<path fill-rule="evenodd" clip-rule="evenodd" d="M72.8899 30.4312C72.8899 32.1917 72.9344 33.6598 72.0446 35.2233C71.3264 36.4944 70.1824 37.2762 68.9176 37.2762C67.1825 37.2762 66.1656 35.9542 66.1656 34.003C66.1656 30.1515 69.6168 29.4524 72.8899 29.4524V30.4312ZM77.4469 41.4455C77.1482 41.7124 76.716 41.7315 76.3791 41.5535C74.8792 40.3078 74.6059 39.7295 73.786 38.5409C71.3073 41.0705 69.5468 41.8268 66.3372 41.8268C62.5302 41.8268 59.5749 39.4816 59.5749 34.7848C59.5749 31.1176 61.5578 28.6198 64.3924 27.3995C66.8457 26.3191 70.2714 26.1284 72.8899 25.8297V25.245C72.8899 24.1709 72.9725 22.8998 72.337 21.9718C71.7904 21.1392 70.7353 20.796 69.8011 20.796C68.0787 20.796 66.547 21.6795 66.172 23.5099C66.0957 23.9167 65.797 24.3171 65.3839 24.3361L61.0049 23.8658C60.6363 23.7832 60.2231 23.4845 60.3312 22.9188C61.3354 17.6055 66.1402 16.0039 70.4366 16.0039C72.6357 16.0039 75.5084 16.5886 77.2435 18.2538C79.4425 20.3067 79.2328 23.0459 79.2328 26.0267V33.0688C79.2328 35.1852 80.1099 36.1131 80.9361 37.2571C81.2221 37.6639 81.2857 38.1532 80.917 38.4583C79.9955 39.2274 78.3557 40.6574 77.4532 41.4582L77.4469 41.4455Z" fill="black"/>
<path fill-rule="evenodd" clip-rule="evenodd" d="M13.649 30.4312C13.649 32.1917 13.6935 33.6598 12.8037 35.2233C12.0855 36.4944 10.9479 37.2762 9.67674 37.2762C7.94166 37.2762 6.93112 35.9542 6.93112 34.003C6.93112 30.1515 10.3822 29.4524 13.649 29.4524V30.4312ZM18.206 41.4454C17.9073 41.7124 17.4751 41.7314 17.1382 41.5535C15.6383 40.3078 15.3714 39.7294 14.5451 38.5409C12.0665 41.0705 10.3123 41.8268 7.09636 41.8268C3.2957 41.8268 0.333984 39.4816 0.333984 34.7848C0.333984 31.1176 2.32329 28.6198 5.15154 27.3995C7.60481 26.3191 11.0305 26.1284 13.649 25.8297V25.245C13.649 24.1709 13.7316 22.8998 13.1024 21.9718C12.5495 21.1392 11.4945 20.796 10.5665 20.796C8.84416 20.796 7.3061 21.6795 6.93112 23.5099C6.85485 23.9167 6.55613 24.3171 6.14938 24.3361L1.764 23.8658C1.39537 23.7832 0.988612 23.4845 1.0903 22.9188C2.10085 17.6055 6.89934 16.0039 11.1957 16.0039C13.3948 16.0039 16.2675 16.5886 18.0026 18.2538C20.2016 20.3067 19.9919 23.0459 19.9919 26.0267V33.0687C19.9919 35.1852 20.869 36.1131 21.6952 37.2571C21.9876 37.6639 22.0511 38.1532 21.6825 38.4583C20.7609 39.2273 19.1212 40.6574 18.2187 41.4582L18.206 41.4454Z" fill="black"/>
</g>
<defs>
<clipPath id="clip0_152_816">
<rect width="146.667" height="64" fill="white" transform="translate(0.333984)"/>
</clipPath>
</defs>
</svg>
