<svg width="220" height="64" viewBox="0 0 220 64" fill="none" xmlns="http://www.w3.org/2000/svg">
<g clip-path="url(#clip0_152_813)">
<path d="M53.502 43.4317L54.8546 43.1532C56.0482 42.8349 56.3665 42.6758 56.3665 40.2887V21.55C56.3665 19.1629 56.0084 18.9639 54.8546 18.6854L53.502 18.4069V17.293H75.0654L75.4632 25.2102H74.2299C73.2353 23.022 72.5987 21.8682 72.0019 20.993C70.7288 19.1629 69.8933 19.0037 67.1482 19.0037C65.1192 19.0037 64.1245 19.2424 63.5278 19.4016V29.5467H64.602C67.3869 29.5467 68.0235 29.2285 68.5009 28.3532C69.0579 27.3586 69.3761 26.6026 69.7342 25.3295H70.9278V35.594H69.7342C69.3761 34.3607 69.0579 33.565 68.5009 32.4112C68.0235 31.4166 67.5063 31.2177 64.602 31.2177H63.5278V38.8564C63.5278 42.3973 63.6471 42.7951 67.5063 42.7951C70.689 42.7951 71.3256 42.3973 72.6385 40.4478C73.3546 39.3736 74.1106 37.7026 75.145 35.1962H76.4181L75.8611 44.5457H53.5417L53.502 43.4317ZM79.76 28.5123C78.845 26.2844 78.4073 25.7274 77.4127 25.4091L76.6568 25.1704V24.136H88.4729V25.1704L87.3987 25.4489C86.5632 25.6876 86.1654 26.0854 86.1654 27.0403C86.1654 27.5973 86.3643 28.2736 86.6826 29.1489L89.9847 38.2199H90.1837L93.3665 29.1489C93.7245 28.194 93.8837 27.5177 93.8837 26.9607C93.8837 26.0854 93.4858 25.6478 92.6503 25.4489L91.5761 25.1704V24.136H98.8568V25.1704L98.1009 25.4091C97.0665 25.7672 96.6288 26.3639 95.674 28.95L89.5869 44.5457H86.245L79.76 28.5123ZM97.9417 34.2414C97.9417 27.3983 102.994 23.6188 108.206 23.6188C113.617 23.6188 116.999 26.3242 117.118 33.4457H104.108C104.228 39.8908 106.655 41.6414 110.713 41.6414C113.14 41.6414 115.009 40.9252 116.482 40.1693V41.4822C115.089 42.994 112.105 45.0629 108.166 45.0629C101.323 44.9833 97.9417 40.9252 97.9417 34.2414ZM104.108 31.9338L110.832 31.5758C110.832 26.8414 110.195 25.0908 107.848 25.0908C105.859 25.0908 104.268 27.0005 104.108 31.9338ZM127.462 26.6424C128.576 25.4489 130.844 23.4994 133.47 23.4994C135.141 23.4994 136.533 24.8521 136.533 26.5629C136.533 28.2736 135.18 29.6263 133.47 29.6263C132.236 29.6263 131.122 28.8704 130.685 27.7962C130.446 27.3586 129.929 27.2392 129.571 27.2392C128.855 27.2392 128.019 27.7564 127.502 28.2338V40.965C127.502 42.7951 127.661 42.994 128.855 43.193L130.168 43.4715V44.5457H118.829V43.4715L119.863 43.193C121.176 42.8349 121.335 42.636 121.335 40.965V28.751C121.335 27.0801 121.136 26.9607 120.022 26.2048L118.709 25.3295V24.5338L126.985 23.579L127.422 23.8973L127.343 26.6026L127.462 26.6424ZM137.727 43.4715L138.761 43.193C140.074 42.8349 140.233 42.636 140.233 40.965V28.751C140.233 27.0801 140.034 26.9607 138.92 26.2048L137.607 25.3295V24.5338L145.883 23.579L146.32 23.8575L146.241 26.3639H146.4C148.469 24.8919 151.055 23.579 153.919 23.579C157.261 23.579 159.051 25.2897 159.051 28.8306V40.9252C159.051 42.636 159.211 42.8349 160.484 43.1532L161.518 43.4317V44.5059H150.577V43.4317L151.532 43.193C152.726 42.8747 152.845 42.7553 152.845 40.9252V30.3822C152.845 27.9951 151.97 27.2392 150.14 27.2392C148.747 27.2392 147.355 27.5575 146.479 27.7564V40.965C146.479 42.8349 146.599 42.9145 147.792 43.2328L148.747 43.4715V44.5457H137.806V43.4715H137.727ZM162.274 34.3607C162.274 26.8414 167.605 23.6188 172.897 23.6188C178.586 23.6188 183.559 27.0403 183.559 34.1618C183.559 41.6811 178.307 44.9833 172.897 44.9833C167.207 44.9833 162.274 41.5618 162.274 34.3607ZM176.955 34.5596C176.955 26.6424 175.443 25.1306 172.737 25.1306C170.271 25.1306 168.799 26.9209 168.799 33.6844C168.799 41.7209 170.112 43.4715 172.976 43.4715C175.323 43.4715 176.955 42.079 176.955 34.5596ZM186.941 39.5725V26.4435H184.474V25.4887C187.537 24.2951 189.885 22.0274 190.999 18.8844H193.227V24.136H198.438L197.921 26.4435H193.227V39.1747C193.227 41.1242 193.823 41.9198 195.773 41.9198C196.728 41.9198 197.882 41.7209 198.598 41.5618V42.6758C197.643 43.551 195.693 44.9833 192.391 44.9833C188.85 44.9833 186.941 43.4317 186.941 39.5725ZM199.393 34.2414C199.393 27.3983 204.446 23.6188 209.658 23.6188C215.069 23.6188 218.45 26.3242 218.57 33.4457H205.6C205.719 39.8908 208.146 41.6414 212.204 41.6414C214.631 41.6414 216.501 40.9252 217.973 40.1693V41.4822C216.58 42.994 213.597 45.0629 209.658 45.0629C202.775 44.9833 199.393 40.9252 199.393 34.2414ZM205.56 31.9338L212.284 31.5758C212.284 26.8414 211.647 25.0908 209.3 25.0908C207.311 25.0908 205.719 27.0005 205.56 31.9338Z" fill="black"/>
<path d="M13.6376 20.352C13.6376 20.8295 13.5979 21.6252 13.1204 22.1424C12.6032 22.6198 11.8075 22.6596 11.3301 22.6596H6.23765C4.7656 22.6596 3.89033 22.6596 3.29356 22.7391C2.97528 22.7789 2.57743 22.9381 2.37851 23.0176C2.29894 23.0574 2.29894 23.0176 2.33872 22.9778L13.9559 11.1617C13.9957 11.1219 14.0355 11.1219 13.9957 11.2015C13.9161 11.4004 13.757 11.7983 13.7172 12.1165C13.6376 12.7133 13.6376 13.5886 13.6376 15.0606V20.352ZM24.4591 56.0789C23.1065 55.2036 22.3903 54.0499 22.1118 53.3338C21.8333 52.6574 21.6742 51.9015 21.6742 51.1456C21.6742 47.8434 24.3796 45.1381 27.7215 45.1381C28.7161 45.1381 29.5118 45.9338 29.5118 46.9284C29.5118 47.6047 29.1538 48.1617 28.5968 48.48C28.3979 48.5993 28.1194 48.6789 27.9204 48.7187C27.7215 48.7585 26.9656 48.8381 26.6075 49.1563C26.2097 49.4746 25.8914 49.9918 25.8914 50.5488C25.8914 51.1456 26.1301 51.7026 26.528 52.1004C27.2441 52.8165 28.1989 53.2144 29.2333 53.2144C31.9387 53.2144 34.1269 51.0262 34.1269 48.3209C34.1269 45.894 32.4957 43.7456 30.3473 42.7907C30.029 42.6316 29.5118 42.5122 29.0344 42.3929C28.4376 42.2735 27.8806 42.194 27.8409 42.194C26.1699 41.995 21.9925 40.6821 21.714 36.9821C21.714 36.9821 20.4807 42.552 18.014 44.0639C17.7753 44.1832 17.457 44.3026 17.0989 44.3821C16.7409 44.4617 16.343 44.5015 16.2237 44.5015C12.2054 44.7402 7.9484 43.4671 5.00431 40.4434C5.00431 40.4434 3.01507 38.8122 1.98066 34.237C1.74195 33.123 1.26453 31.1338 0.986034 29.2639C0.866679 28.5875 0.826894 28.0703 0.787109 27.5929C0.787109 25.6434 1.98066 24.3305 3.49249 24.1316C3.53227 24.1316 3.65162 24.1316 3.73119 24.1316C4.64625 24.1316 11.6086 24.1316 11.6086 24.1316C13.0011 24.1316 13.7968 23.7735 14.314 23.2961C14.9903 22.6596 15.1495 21.7445 15.1495 20.6703C15.1495 20.6703 15.1495 13.4295 15.1495 12.5144C15.1495 12.4746 15.1495 12.3155 15.1495 12.2757C15.3484 10.8036 16.6613 9.57031 18.6108 9.57031C18.6108 9.57031 19.2075 9.57031 19.5656 9.57031C19.9634 9.57031 20.4409 9.6101 20.8785 9.64988C21.1968 9.68967 21.4753 9.76924 21.9527 9.88859C24.3796 10.4854 24.8968 12.952 24.8968 12.952C24.8968 12.952 29.472 13.7477 31.7796 14.1456C33.9677 14.5434 39.3785 14.9015 40.4129 20.352C42.8398 33.3219 41.3677 45.894 41.2484 45.894C39.5376 58.1477 29.3527 57.551 29.3527 57.551C27.1645 57.551 25.5333 56.8348 24.4591 56.0789ZM33.6097 30.0198C32.2968 29.9004 31.1828 30.4176 30.785 31.4122C30.7054 31.6112 30.6258 31.8499 30.6656 31.9692C30.7054 32.0886 30.785 32.1284 30.8645 32.1682C31.3419 32.4069 32.1376 32.5262 33.2914 32.6456C34.4452 32.7649 35.2409 32.8445 35.7581 32.7649C35.8376 32.7649 35.9172 32.7252 35.9968 32.6058C36.0763 32.4864 36.0366 32.2477 36.0366 32.0488C35.8774 30.9348 34.9226 30.1789 33.6097 30.0198Z" fill="#00A82D"/>
</g>
<defs>
<clipPath id="clip0_152_813">
<rect width="218.667" height="64" fill="white" transform="translate(0.666016)"/>
</clipPath>
</defs>
</svg>
