<svg width="48" height="48" viewBox="0 0 48 48" fill="none" xmlns="http://www.w3.org/2000/svg">
<path fill-rule="evenodd" clip-rule="evenodd" d="M24.4999 1.99925C36.9264 1.99925 46.9999 12.0731 46.9999 24.4993C46.9999 36.9264 36.9264 46.9994 24.4999 46.9994C12.0735 46.9994 1.99992 36.9264 1.99992 24.4993C1.99992 12.0731 12.0735 1.99925 24.4999 1.99925Z" fill="#FD3333"/>
<path fill-rule="evenodd" clip-rule="evenodd" d="M24.4047 28.5234L31.5044 21.3537C31.7373 21.1192 31.7365 20.7382 31.5036 20.5045C31.2706 20.2707 30.8923 20.2715 30.6601 20.5053L23.9817 27.2485L17.3042 20.5053C17.072 20.2707 16.6945 20.2699 16.4607 20.5045C16.3434 20.6225 16.2856 20.776 16.2856 20.9303C16.2856 21.0845 16.3434 21.2364 16.4599 21.3537L23.5596 28.5234C23.6719 28.6368 23.8239 28.7005 23.9817 28.7005C24.1404 28.7005 24.2923 28.636 24.4047 28.5234Z" fill="white"/>
<path fill-rule="evenodd" clip-rule="evenodd" d="M24.4047 28.5234L31.5044 21.3537C31.7373 21.1192 31.7365 20.7382 31.5036 20.5045C31.2706 20.2707 30.8923 20.2715 30.6601 20.5053L23.9817 27.2485L17.3042 20.5053C17.072 20.2707 16.6945 20.2699 16.4607 20.5045C16.3434 20.6225 16.2856 20.776 16.2856 20.9303C16.2856 21.0845 16.3434 21.2364 16.4599 21.3537L23.5596 28.5234C23.6719 28.6368 23.8239 28.7005 23.9817 28.7005C24.1404 28.7005 24.2923 28.636 24.4047 28.5234Z" fill="white"/>
</svg>
