<svg width="208" height="40" viewBox="0 0 208 40" fill="none" xmlns="http://www.w3.org/2000/svg">
<g clip-path="url(#clip0_152_765)">
<path d="M7.61429 3.99713C10.6594 0.786104 14.1376 -0.259868 18.3074 0.299671C21.4369 0.718622 24.1362 1.91362 26.4446 3.92964C28.8205 6.00472 30.3164 8.68994 30.935 11.8054C31.7869 16.0849 30.9715 20.0663 28.41 23.5782C25.6911 27.3009 22.0217 29.4351 17.3036 29.5869C15.0598 29.66 12.9032 29.4688 10.8478 28.4397C9.75966 27.8942 9.58814 27.1435 10.0436 26.1875C10.5751 25.074 11.1852 23.9915 11.8207 22.9343C12.2228 22.2623 12.8076 22.2145 13.5836 22.4366C18.0656 23.7047 22.525 20.28 23.0986 16.0933C23.5513 12.7923 22.4294 10.242 19.7245 8.43689C16.9802 6.60362 14.1094 6.65705 11.3005 8.36378C8.69119 9.95242 7.66771 12.4802 7.6396 15.3622C7.56087 22.9399 7.61429 30.5176 7.61429 38.0924C7.61429 39.3446 6.96571 39.9716 5.66856 39.9735C4.31048 39.9735 2.94959 39.9004 1.59714 39.996C0.371213 40.0719 -0.00556167 39.6586 6.18397e-05 38.413C0.0450499 27.6074 0.0253676 16.8047 0.0253676 5.9991C0.0253676 4.59603 0.0562969 3.19297 0.0141206 1.7899C-0.0111852 0.943562 0.312166 0.617399 1.16413 0.637081C2.89617 0.676446 4.63102 0.693316 6.36025 0.631458C7.37529 0.594905 7.70145 1.00823 7.62554 1.95579C7.57493 2.58 7.6171 3.20984 7.6171 3.99994L7.61429 3.99713Z" fill="white"/>
<path d="M75.6375 4.21473C78.2693 0.896863 81.5675 -0.101309 85.1722 0.129255C91.9682 0.565077 97.7576 5.16229 99.0088 12.276C100.122 18.6137 97.1502 24.8418 91.6954 27.8363C87.6437 30.0604 83.3192 30.3781 78.9582 28.4577C77.7013 27.9066 77.631 27.094 78.1456 26.0171C78.3621 25.5616 78.5308 25.0779 78.7979 24.6506C80.5496 21.836 79.8158 22.1734 83.0099 22.6823C84.9219 22.9888 86.7692 22.269 88.2173 21.0375C91.6083 18.1554 92.4181 14.0278 89.6878 10.125C88.2792 8.11182 84.4917 6.60753 82.1917 7.19238C78.5899 8.10901 76.183 10.558 75.9299 13.6397C75.2776 21.5632 75.809 29.5008 75.6516 37.4328C75.5953 40.2951 75.9721 39.9437 73.0901 39.9634C71.8248 39.9718 70.5595 39.9268 69.2998 39.9774C68.4141 40.0112 68.043 39.7272 68.0458 38.7852C68.0683 26.4838 68.0683 14.1824 68.043 1.88098C68.043 0.849064 68.4647 0.607253 69.3898 0.635371C71.0262 0.685982 72.6683 0.700041 74.3047 0.629747C75.3591 0.584759 75.764 0.967157 75.66 2.00469C75.601 2.60079 75.6488 3.20531 75.6488 4.21192L75.6375 4.21473Z" fill="white"/>
<path d="M56.4117 3.69862C56.6179 1.66666 57.707 0.650678 59.6789 0.650678C60.708 0.650678 61.74 0.659113 62.7691 0.650678C63.7026 0.642242 64.1187 1.10618 64.1159 2.02281C64.1103 10.489 64.1046 18.9552 64.1243 27.4214C64.1243 28.3942 63.4579 28.8666 62.7831 28.9257C61.2085 29.0634 59.6058 29.0381 58.0256 28.9116C56.8672 28.8188 56.4988 27.9669 56.5073 26.8393C56.541 22.678 56.5213 18.5137 56.5213 14.3495C56.5213 11.0064 53.6309 7.96405 50.462 7.41576C46.1797 6.67345 42.7747 8.861 41.5122 12.969C40.2947 16.9251 43.5901 21.8794 47.6868 22.2787C48.8115 22.3883 49.9053 22.408 51.0187 22.0706C51.6851 21.8682 52.2475 22.2281 52.5961 22.872C53.1191 23.8392 53.6393 24.8093 54.2073 25.7512C54.9186 26.9349 54.4435 27.6941 53.3469 28.1806C49.9531 29.682 46.4525 29.8001 42.9968 28.5433C37.9581 26.7128 34.7921 23.111 33.6674 17.853C32.554 12.64 34.2635 6.72406 39.2994 3.06597C43.2527 0.192362 47.5462 -0.305318 52.1378 0.945912C53.7714 1.39017 55.0396 2.48675 56.4032 3.70143L56.4117 3.69862Z" fill="white"/>
<path d="M186.893 3.78032C186.985 1.694 187.978 0.650835 189.871 0.650835C190.948 0.650835 192.03 0.712693 193.102 0.633964C194.207 0.552424 194.572 0.934822 194.558 2.06234C194.502 6.64549 194.536 11.2315 194.536 15.8146C194.536 19.4165 194.536 23.0183 194.536 26.6202C194.536 28.2791 194.066 28.729 192.37 28.7346C191.153 28.7374 189.936 28.7318 188.718 28.7346C187.503 28.7402 186.941 28.1301 186.944 26.9295C186.952 22.9059 186.992 18.8822 186.935 14.8614C186.879 10.835 184.323 7.97264 180.783 7.19941C176.419 6.24622 172.863 9.20138 171.786 12.7611C170.146 18.1765 176.048 23.4795 180.744 22.0427C181.773 21.7277 182.746 21.978 183.232 23.1983C183.57 24.0446 184.048 24.8347 184.489 25.6389C184.97 26.5162 184.9 27.4075 183.764 27.9192C181.422 28.9764 179.065 29.4404 176.436 29.0805C172.843 28.5884 169.806 27.1657 167.43 24.5057C163.468 20.0716 162.507 14.2204 164.849 8.86115C167.037 3.85623 171.029 0.991057 176.287 0.175649C179.878 -0.381079 183.381 0.333107 186.14 3.07457C186.328 3.26295 186.528 3.44009 186.896 3.78313L186.893 3.78032Z" fill="white"/>
<path d="M124.349 3.91529C124.442 3.76908 124.521 3.7016 124.526 3.6313C124.654 1.6462 125.739 0.653656 127.782 0.653656C128.437 0.653656 129.095 0.690209 129.751 0.648032C131.581 0.527127 132.146 0.566492 132.141 2.99303C132.129 7.579 132.138 12.1678 132.138 16.7538C132.138 19.9845 132.143 23.2124 132.138 26.4431C132.135 28.2426 131.629 28.7374 129.832 28.7374C128.615 28.7374 127.394 28.6953 126.18 28.7487C124.968 28.8021 124.523 28.2763 124.535 27.0841C124.574 23.0605 124.605 19.0341 124.532 15.0105C124.467 11.5492 122.398 8.60248 119.229 7.55651C115.894 6.45711 112.835 7.39062 110.524 10.3542C109.034 12.2634 108.227 15.4238 110.192 18.4745C112.003 21.2807 114.876 22.9593 118.459 22.0764C119.42 21.8402 120.148 22.068 120.607 23.038C121.017 23.9069 121.535 24.7223 121.99 25.5714C122.575 26.6596 122.389 27.4469 121.2 28.0429C118.757 29.2632 116.268 29.4854 113.563 29.0861C110.161 28.5828 107.448 27.0532 105.083 24.6295C101.287 20.7352 100.084 14.2991 102.268 9.26606C104.225 4.756 107.479 1.80366 112.301 0.614292C116.726 -0.476669 120.691 0.150352 123.956 3.57788C124.071 3.69878 124.211 3.80001 124.349 3.92091V3.91529Z" fill="white"/>
<path d="M137.787 35.9958C137.787 34.8739 137.458 33.6115 137.868 32.6667C138.414 31.407 139.879 32.3181 140.914 32.0791C143.621 31.4577 145.494 29.81 146.728 27.4087C149.219 22.5585 150.757 17.3314 152.624 12.2365C153.895 8.76962 155.104 5.28023 156.274 1.77679C156.541 0.975438 156.921 0.632404 157.745 0.64084C159.662 0.663334 161.583 0.663334 163.5 0.64084C164.597 0.629593 164.861 1.05979 164.484 2.08327C162.019 8.75275 159.589 15.4391 157.123 22.1086C155.616 26.1884 153.912 30.1755 151.269 33.6874C148.168 37.8094 144.178 40.1628 138.872 39.9801C138.001 39.9492 137.714 39.6174 137.75 38.7963C137.79 37.8628 137.759 36.9265 137.759 35.993C137.77 35.993 137.778 35.993 137.79 35.993L137.787 35.9958Z" fill="white"/>
<path d="M137.862 0.652187C141.708 0.652187 141.762 0.632504 143.044 4.20062C144.801 9.08745 146.477 14.0024 148.167 18.9117C148.723 20.5285 148.431 21.5716 147.143 22.5698C146.241 23.2699 145.29 23.911 144.332 24.5324C143.643 24.9795 143.167 24.971 142.785 24.0122C139.914 16.8141 136.982 9.64136 134.066 2.46014C133.518 1.10769 133.785 0.669057 135.199 0.652187C136.087 0.643751 136.976 0.652187 137.865 0.652187H137.862Z" fill="white"/>
<path d="M202.806 19.4671C205.561 19.4642 207.473 21.379 207.465 24.1374C207.459 26.8029 205.533 28.6474 202.87 28.7599C200.711 28.8499 198.127 26.9885 198.203 24.0811C198.27 21.5702 200.14 19.3855 202.803 19.4671H202.806Z" fill="white"/>
</g>
<defs>
<clipPath id="clip0_152_765">
<rect width="207.465" height="40" fill="white"/>
</clipPath>
</defs>
</svg>
