<svg width="166" height="33" viewBox="0 0 166 33" fill="none" xmlns="http://www.w3.org/2000/svg">
<g clip-path="url(#clip0_360_1420)">
<path d="M6.09143 3.70161C8.52754 1.13279 11.31 0.296012 14.6459 0.743643C17.1495 1.0788 19.3089 2.0348 21.1557 3.64762C23.0564 5.30768 24.2531 7.45586 24.748 9.9482C25.4295 13.3718 24.7772 16.5569 22.728 19.3664C20.5528 22.3447 17.6174 24.052 13.8429 24.1734C12.0479 24.2319 10.3226 24.0789 8.67825 23.2557C7.80773 22.8193 7.67051 22.2187 8.03492 21.4539C8.46005 20.5631 8.94817 19.6971 9.45654 18.8513C9.7782 18.3137 10.2461 18.2755 10.8669 18.4532C14.4525 19.4677 18.02 16.7279 18.4789 13.3785C18.841 10.7377 17.9435 8.69753 15.7796 7.25341C13.5842 5.7868 11.2876 5.82954 9.0404 7.19493C6.95295 8.46584 6.13417 10.4881 6.11168 12.7937C6.04869 18.8558 6.09143 24.918 6.09143 30.9779C6.09143 31.9796 5.57257 32.4812 4.53485 32.4827C3.44838 32.4827 2.35967 32.4242 1.27771 32.5007C0.296971 32.5614 -0.00444933 32.2308 4.94717e-05 31.2343C0.0360399 22.5898 0.0202941 13.9476 0.0202941 5.30318C0.0202941 4.18073 0.0450375 3.05828 0.0112965 1.93583C-0.00894814 1.25876 0.249733 0.997825 0.931302 1.01357C2.31693 1.04506 3.70482 1.05856 5.0882 1.00907C5.90023 0.97983 6.16116 1.31049 6.10043 2.06854C6.05994 2.56791 6.09368 3.07177 6.09368 3.70386L6.09143 3.70161Z" fill="white"/>
<path d="M60.5112 3.87179C62.6166 1.21749 65.2552 0.418953 68.1389 0.603404C73.5757 0.952061 78.2072 4.62984 79.2082 10.3208C80.099 15.391 77.7214 20.3734 73.3575 22.769C70.1161 24.5483 66.6566 24.8025 63.1677 23.2661C62.1622 22.8253 62.106 22.1752 62.5176 21.3137C62.6909 20.9492 62.8258 20.5624 63.0395 20.2204C64.4409 17.9688 63.8538 18.2387 66.4091 18.6459C67.9387 18.891 69.4166 18.3152 70.575 17.33C73.2878 15.0243 73.9356 11.7222 71.7514 8.60003C70.6245 6.98946 67.5946 5.78603 65.7545 6.2539C62.8731 6.98721 60.9476 8.94644 60.7451 11.4118C60.2233 17.7506 60.6484 24.1007 60.5224 30.4462C60.4774 32.7361 60.7789 32.4549 58.4732 32.4707C57.461 32.4774 56.4488 32.4414 55.441 32.4819C54.7325 32.5089 54.4355 32.2817 54.4378 31.5282C54.4558 21.6871 54.4558 11.8459 54.4355 2.00478C54.4355 1.17925 54.773 0.985802 55.513 1.0083C56.8222 1.04879 58.1358 1.06003 59.445 1.0038C60.2885 0.967807 60.6124 1.27373 60.5292 2.10376C60.4819 2.58063 60.5202 3.06425 60.5202 3.86954L60.5112 3.87179Z" fill="white"/>
<path d="M45.1297 3.46046C45.2947 1.83489 46.166 1.0221 47.7435 1.0221C48.5668 1.0221 49.3924 1.02885 50.2156 1.0221C50.9624 1.01536 51.2953 1.38651 51.2931 2.11981C51.2886 8.89276 51.2841 15.6657 51.2998 22.4387C51.2998 23.217 50.7667 23.5949 50.2269 23.6421C48.9672 23.7523 47.6851 23.7321 46.4209 23.6308C45.4941 23.5566 45.1995 22.875 45.2062 21.973C45.2332 18.6439 45.2175 15.3126 45.2175 11.9812C45.2175 9.30665 42.9051 6.8728 40.37 6.43417C36.9442 5.84032 34.2201 7.59036 33.2102 10.8767C32.2362 14.0416 34.8725 18.0051 38.1498 18.3245C39.0496 18.4122 39.9246 18.428 40.8154 18.1581C41.3485 17.9961 41.7984 18.284 42.0773 18.7991C42.4957 19.5729 42.9118 20.349 43.3662 21.1025C43.9353 22.0495 43.5552 22.6569 42.6779 23.046C39.9629 24.2472 37.1624 24.3417 34.3978 23.3362C30.3669 21.8718 27.8341 18.9903 26.9343 14.7839C26.0436 10.6136 27.4112 5.88081 31.4399 2.95434C34.6025 0.655452 38.0374 0.257308 41.7106 1.25829C43.0175 1.6137 44.032 2.49096 45.123 3.46271L45.1297 3.46046Z" fill="white"/>
<path d="M149.516 3.52425C149.589 1.8552 150.383 1.02067 151.898 1.02067C152.759 1.02067 153.625 1.07015 154.482 1.00717C155.366 0.941939 155.659 1.24786 155.648 2.14987C155.603 5.81639 155.63 9.48517 155.63 13.1517C155.63 16.0332 155.63 18.9147 155.63 21.7961C155.63 23.1233 155.254 23.4832 153.898 23.4877C152.924 23.49 151.95 23.4855 150.976 23.4877C150.004 23.4922 149.554 23.0041 149.556 22.0436C149.563 18.8247 149.594 15.6058 149.549 12.3891C149.504 9.168 147.46 6.87811 144.628 6.25953C141.137 5.49698 138.291 7.8611 137.43 10.7088C136.118 15.0412 140.84 19.2836 144.596 18.1341C145.42 17.8822 146.198 18.0824 146.587 19.0586C146.857 19.7357 147.239 20.3678 147.593 21.0111C147.977 21.7129 147.921 22.426 147.012 22.8354C145.138 23.6811 143.253 24.0523 141.15 23.7644C138.275 23.3707 135.846 22.2325 133.945 20.1046C130.776 16.5573 130.007 11.8763 131.88 7.58892C133.63 3.58499 136.825 1.29285 141.031 0.640519C143.903 0.195137 146.706 0.766485 148.913 2.95965C149.064 3.11036 149.223 3.25208 149.518 3.5265L149.516 3.52425Z" fill="white"/>
<path d="M99.4797 3.63379C99.5539 3.51683 99.6169 3.46284 99.6214 3.4066C99.7234 1.81853 100.592 1.02449 102.226 1.02449C102.75 1.02449 103.277 1.05373 103.801 1.01999C105.265 0.923264 105.717 0.954756 105.713 2.89599C105.704 6.56477 105.711 10.2358 105.711 13.9046C105.711 16.4891 105.715 19.0714 105.711 21.656C105.708 23.0956 105.303 23.4915 103.866 23.4915C102.892 23.4915 101.916 23.4578 100.944 23.5005C99.9746 23.5433 99.6192 23.1226 99.6282 22.1689C99.6597 18.95 99.6844 15.7288 99.6259 12.5099C99.5742 9.74092 97.9186 7.38355 95.3836 6.54677C92.7158 5.66725 90.2684 6.41406 88.4194 8.78493C87.2272 10.3123 86.5816 12.8406 88.154 15.2812C89.6026 17.5261 91.9015 18.869 94.7672 18.1627C95.5365 17.9737 96.1191 18.1559 96.4858 18.932C96.8142 19.627 97.2281 20.2794 97.5925 20.9587C98.0603 21.8292 97.9119 22.459 96.9604 22.9359C95.0057 23.9122 93.0149 24.0899 90.851 23.7704C88.1292 23.3678 85.9586 22.1441 84.0668 20.2051C81.0301 17.0897 80.0674 11.9408 81.8152 7.91441C83.3807 4.30637 85.9833 1.94449 89.841 0.992996C93.3816 0.120227 96.5532 0.621844 99.1648 3.36387C99.257 3.46059 99.3695 3.54157 99.4797 3.63829V3.63379Z" fill="white"/>
<path d="M110.23 29.2959C110.23 28.3984 109.966 27.3884 110.295 26.6326C110.731 25.6249 111.903 26.3537 112.731 26.1625C114.897 25.6653 116.395 24.3472 117.383 22.4262C119.376 18.546 120.606 14.3643 122.1 10.2884C123.117 7.51491 124.084 4.7234 125.019 1.92065C125.233 1.27957 125.537 1.00514 126.196 1.01189C127.73 1.02989 129.266 1.02989 130.8 1.01189C131.678 1.00289 131.889 1.34705 131.588 2.16583C129.615 7.50142 127.672 12.8505 125.699 18.1861C124.493 21.45 123.13 24.6396 121.016 27.4491C118.534 30.7467 115.343 32.6295 111.098 32.4833C110.401 32.4585 110.171 32.1931 110.2 31.5363C110.232 30.7895 110.207 30.0404 110.207 29.2936C110.216 29.2936 110.223 29.2936 110.232 29.2936L110.23 29.2959Z" fill="white"/>
<path d="M110.29 1.02253C113.367 1.02253 113.41 1.00678 114.435 3.86128C115.841 7.77074 117.182 11.7027 118.534 15.6302C118.979 16.9236 118.745 17.7581 117.715 18.5566C116.993 19.1167 116.233 19.6296 115.466 20.1267C114.915 20.4844 114.534 20.4776 114.228 19.7106C111.932 13.9521 109.586 8.21387 107.253 2.4689C106.814 1.38693 107.028 1.03603 108.16 1.02253C108.87 1.01578 109.581 1.02253 110.292 1.02253H110.29Z" fill="white"/>
<path d="M162.244 16.0721C164.449 16.0698 165.978 17.6017 165.971 19.8083C165.967 21.9408 164.426 23.4164 162.296 23.5064C160.568 23.5783 158.501 22.0892 158.562 19.7634C158.616 17.7546 160.112 16.0068 162.242 16.0721H162.244Z" fill="#FD3333"/>
</g>
<defs>
<clipPath id="clip0_360_1420">
<rect width="165.972" height="32" fill="white" transform="translate(0 0.5)"/>
</clipPath>
</defs>
</svg>
