<svg width="192" height="64" viewBox="0 0 192 64" fill="none" xmlns="http://www.w3.org/2000/svg">
<g clip-path="url(#clip0_152_815)">
<path d="M71.6158 17.0312H61.1155C60.397 17.0312 59.7859 17.5533 59.6738 18.2626L55.427 45.1881C55.3426 45.7193 55.7541 46.1984 56.293 46.1984H61.3059C62.0244 46.1984 62.6355 45.6763 62.7476 44.9655L63.893 37.7032C64.0035 36.9924 64.6161 36.4704 65.3331 36.4704H68.6572C75.5739 36.4704 79.5659 33.1233 80.6084 26.4906C81.0782 23.5887 80.6283 21.3087 79.2695 19.712C77.7772 17.9586 75.1302 17.0312 71.6158 17.0312ZM72.8272 26.8652C72.253 30.6329 69.3742 30.6329 66.5906 30.6329H65.0061L66.1177 23.5964C66.1837 23.1711 66.5522 22.8579 66.9821 22.8579H67.7083C69.6045 22.8579 71.3932 22.8579 72.3175 23.9388C72.8686 24.5837 73.0375 25.5417 72.8272 26.8652Z" fill="#253B80"/>
<path d="M103.003 26.7439H97.975C97.5466 26.7439 97.1766 27.0571 97.1106 27.4824L96.888 28.8888L96.5364 28.379C95.4478 26.7992 93.0204 26.271 90.5976 26.271C85.0412 26.271 80.2954 30.4794 79.3711 36.3828C78.8906 39.3276 79.5738 42.1435 81.2443 44.1072C82.7765 45.9128 84.969 46.6651 87.5776 46.6651C92.0547 46.6651 94.5373 43.7863 94.5373 43.7863L94.3132 45.1835C94.2287 45.7178 94.6402 46.1968 95.176 46.1968H99.7053C100.425 46.1968 101.033 45.6748 101.147 44.9639L103.865 27.7541C103.951 27.2244 103.541 26.7439 103.003 26.7439ZM95.9944 36.5302C95.5092 39.4029 93.2292 41.3313 90.3213 41.3313C88.8611 41.3313 87.6943 40.863 86.945 39.9756C86.2019 39.0943 85.9194 37.8399 86.1558 36.4427C86.6088 33.5946 88.9272 31.6033 91.7906 31.6033C93.2185 31.6033 94.3792 32.0777 95.1438 32.9728C95.9099 33.8771 96.2139 35.1392 95.9944 36.5302Z" fill="#253B80"/>
<path d="M129.783 26.7438H124.73C124.248 26.7438 123.795 26.9833 123.522 27.3841L116.553 37.6494L113.599 27.7848C113.413 27.1676 112.843 26.7438 112.198 26.7438H107.233C106.63 26.7438 106.211 27.3334 106.402 27.9015L111.968 44.2346L106.736 51.6211C106.324 52.203 106.739 53.003 107.45 53.003H112.496C112.975 53.003 113.424 52.7696 113.695 52.3765L130.501 28.118C130.904 27.5376 130.491 26.7438 129.783 26.7438Z" fill="#253B80"/>
<path d="M146.51 17.0251H136.009C135.292 17.0251 134.68 17.5471 134.568 18.2564L130.322 45.1819C130.237 45.7131 130.649 46.1922 131.184 46.1922H136.574C137.074 46.1922 137.502 45.8268 137.581 45.3293L138.786 37.6971C138.897 36.9862 139.509 36.4642 140.226 36.4642H143.549C150.467 36.4642 154.457 33.1171 155.501 26.4844C155.973 23.5826 155.52 21.3026 154.161 19.7058C152.67 17.9524 150.025 17.0251 146.51 17.0251ZM147.722 26.859C147.149 30.6268 144.27 30.6268 141.485 30.6268H139.902L141.015 23.5902C141.081 23.1649 141.447 22.8517 141.878 22.8517H142.604C144.499 22.8517 146.289 22.8517 147.214 23.9326C147.765 24.5775 147.932 25.5355 147.722 26.859Z" fill="#179BD7"/>
<path d="M177.896 26.7377H172.871C172.439 26.7377 172.073 27.0509 172.008 27.4762L171.785 28.8826L171.432 28.3729C170.344 26.793 167.918 26.2648 165.495 26.2648C159.939 26.2648 155.194 30.4732 154.27 36.3766C153.791 39.3215 154.471 42.1373 156.142 44.101C157.677 45.9066 159.866 46.6589 162.475 46.6589C166.952 46.6589 169.435 43.7801 169.435 43.7801L169.211 45.1773C169.126 45.7116 169.538 46.1906 170.077 46.1906H174.604C175.321 46.1906 175.932 45.6686 176.044 44.9577L178.764 27.748C178.847 27.2183 178.435 26.7377 177.896 26.7377ZM170.887 36.524C170.405 39.3967 168.122 41.3251 165.214 41.3251C163.757 41.3251 162.587 40.8568 161.838 39.9694C161.095 39.0881 160.815 37.8337 161.049 36.4365C161.505 33.5884 163.82 31.5971 166.683 31.5971C168.111 31.5971 169.272 32.0715 170.037 32.9666C170.806 33.871 171.11 35.133 170.887 36.524Z" fill="#179BD7"/>
<path d="M183.824 17.7635L179.514 45.1818C179.43 45.7131 179.841 46.1921 180.377 46.1921H184.71C185.43 46.1921 186.041 45.6701 186.152 44.9592L190.401 18.0352C190.486 17.504 190.074 17.0234 189.539 17.0234H184.687C184.259 17.025 183.89 17.3382 183.824 17.7635Z" fill="#179BD7"/>
<path d="M11.8198 51.4239L12.6228 46.3234L10.8341 46.282H2.29297L8.22864 8.64585C8.24707 8.53223 8.30695 8.42629 8.39446 8.35106C8.48198 8.27583 8.59406 8.23438 8.71075 8.23438H23.1124C27.8934 8.23438 31.1929 9.22928 32.9156 11.193C33.7232 12.1142 34.2375 13.0769 34.4863 14.1363C34.7473 15.2479 34.7519 16.5759 34.497 18.1957L34.4786 18.314V19.3519L35.2862 19.8094C35.9663 20.1702 36.5068 20.5832 36.9213 21.0561C37.6122 21.8437 38.059 22.8448 38.2479 24.0316C38.4429 25.2522 38.3784 26.7047 38.059 28.349C37.6905 30.2406 37.0948 31.888 36.2903 33.2361C35.5503 34.4782 34.6075 35.5084 33.4883 36.3068C32.4197 37.0652 31.1499 37.641 29.7144 38.0095C28.3233 38.3718 26.7373 38.5545 24.9978 38.5545H23.877C23.0755 38.5545 22.2971 38.8432 21.686 39.3606C21.0734 39.8888 20.6681 40.6104 20.5437 41.3995L20.4593 41.8586L19.0406 50.8481L18.9761 51.1782C18.9592 51.2826 18.9301 51.3348 18.8871 51.3701C18.8487 51.4024 18.7934 51.4239 18.7397 51.4239H11.8198Z" fill="#253B80"/>
<path d="M36.0535 18.4375C36.0105 18.7123 35.9614 18.9933 35.9061 19.2819C34.0069 29.033 27.5093 32.4015 19.2107 32.4015H14.9854C13.9705 32.4015 13.1153 33.1385 12.9572 34.1396L10.7939 47.8595L10.1813 51.7485C10.0784 52.4057 10.5851 52.9983 11.2483 52.9983H18.7424C19.6298 52.9983 20.3837 52.3535 20.5234 51.4783L20.5971 51.0975L22.0081 42.1434L22.0987 41.652C22.2369 40.7738 22.9923 40.129 23.8797 40.129H25.0005C32.2612 40.129 37.9451 37.1811 39.6063 28.6507C40.3003 25.0871 39.941 22.1116 38.1048 20.0189C37.549 19.3879 36.8596 18.8643 36.0535 18.4375Z" fill="#179BD7"/>
<path d="M34.0666 17.6465C33.7764 17.5621 33.477 17.4853 33.17 17.4162C32.8613 17.3487 32.5451 17.2888 32.2196 17.2366C31.0803 17.0524 29.8321 16.9648 28.4948 16.9648H17.2069C16.929 16.9648 16.6649 17.0278 16.4285 17.1414C15.908 17.3917 15.5211 17.8845 15.4274 18.4879L13.0261 33.6971L12.957 34.1408C13.1152 33.1398 13.9704 32.4028 14.9852 32.4028H19.2105C27.5091 32.4028 34.0067 29.0327 35.906 19.2832C35.9628 18.9946 36.0104 18.7136 36.0533 18.4388C35.5728 18.1839 35.0523 17.9659 34.4919 17.7801C34.3537 17.7341 34.2109 17.6895 34.0666 17.6465Z" fill="#222D65"/>
<path d="M15.4269 18.4887C15.5205 17.8853 15.9075 17.3924 16.4279 17.1437C16.6659 17.0301 16.9285 16.9671 17.2064 16.9671H28.4943C29.8316 16.9671 31.0798 17.0546 32.219 17.2389C32.5445 17.2911 32.8608 17.351 33.1694 17.4185C33.4765 17.4876 33.7759 17.5644 34.0661 17.6488C34.2104 17.6918 34.3532 17.7363 34.4929 17.7809C35.0533 17.9666 35.5738 18.1862 36.0544 18.4395C36.6194 14.836 36.0498 12.3826 34.1014 10.1609C31.9534 7.71508 28.0767 6.66797 23.1159 6.66797H8.71432C7.70099 6.66797 6.83658 7.40494 6.67998 8.40752L0.681352 46.4306C0.56313 47.1829 1.14349 47.8615 1.90196 47.8615H10.7932L13.0256 33.6979L15.4269 18.4887Z" fill="#253B80"/>
</g>
<defs>
<clipPath id="clip0_152_815">
<rect width="190.667" height="64" fill="white" transform="translate(0.666016)"/>
</clipPath>
</defs>
</svg>
