<svg width="187" height="64" viewBox="0 0 187 64" fill="none" xmlns="http://www.w3.org/2000/svg">
<g clip-path="url(#clip0_152_817)">
<path d="M28.0982 4.10938C12.6342 4.10938 0.0976562 16.6456 0.0976562 32.1095C0.0976562 47.5741 12.6342 60.1094 28.0982 60.1094C43.5638 60.1094 56.099 47.5741 56.099 32.1095C56.099 16.6466 43.5638 4.11071 28.0978 4.11071L28.0982 4.10938ZM40.939 44.4937C40.4375 45.3162 39.3608 45.577 38.5383 45.0721C31.9641 41.0564 23.6879 40.1469 13.9413 42.3738C13.002 42.5878 12.0658 41.9993 11.8518 41.0598C11.6368 40.1202 12.223 39.184 13.1645 38.97C23.8307 36.5332 32.9799 37.5824 40.3606 42.0929C41.1831 42.5978 41.4439 43.6711 40.939 44.4937ZM44.3662 36.8695C43.7343 37.8967 42.3902 38.221 41.3637 37.5891C33.8372 32.9628 22.3642 31.623 13.4618 34.3254C12.3072 34.6741 11.0878 34.0234 10.7374 32.8709C10.3897 31.7163 11.0407 30.4993 12.1932 30.1482C22.3622 27.0627 35.0041 28.5573 43.6474 33.8686C44.6738 34.5006 44.9982 35.8447 44.3662 36.8699V36.8695ZM44.6605 28.9304C35.636 23.5703 20.7469 23.0774 12.1307 25.6925C10.7471 26.1121 9.28393 25.331 8.86464 23.9474C8.44535 22.5632 9.22575 21.101 10.6103 20.6804C20.5011 17.6778 36.9434 18.2579 47.3334 24.4259C48.5805 25.1645 48.9885 26.7718 48.2495 28.0146C47.5139 29.2591 45.9023 29.6694 44.6618 28.9304H44.6605ZM76.2778 29.9576C71.4429 28.8047 70.5836 27.9955 70.5836 26.2953C70.5836 24.689 72.0949 23.608 74.3452 23.608C76.5252 23.608 78.6852 24.4289 80.9522 26.1188C81.019 26.1699 81.106 26.1903 81.1896 26.177C81.2765 26.1642 81.3501 26.1178 81.4002 26.0479L83.7608 22.7203C83.8578 22.5832 83.831 22.3943 83.7006 22.2897C81.0023 20.1253 77.9663 19.0731 74.4154 19.0731C69.196 19.0731 65.5481 22.2057 65.5481 26.6879C65.5481 31.4943 68.6944 33.1962 74.1312 34.5099C78.7554 35.5755 79.5378 36.4683 79.5378 38.0639C79.5378 39.8326 77.9596 40.9327 75.4185 40.9327C72.5965 40.9327 70.2927 39.9798 67.7181 37.7529C67.6546 37.6961 67.5676 37.6727 67.4874 37.676C67.4005 37.6827 67.3236 37.7228 67.2701 37.7863L64.6219 40.936C64.5116 41.0698 64.5249 41.2637 64.652 41.3774C67.6479 44.0523 71.3326 45.4633 75.3115 45.4633C80.9355 45.4633 84.57 42.3905 84.57 37.6325C84.58 33.6179 82.1759 31.3943 76.2878 29.9619L76.2778 29.9576ZM97.2958 25.1896C94.8583 25.1896 92.8588 26.1499 91.2071 28.1176V25.9028C91.2071 25.7279 91.0666 25.5855 90.8928 25.5855H86.5628C86.3889 25.5855 86.2485 25.7279 86.2485 25.9028V50.5122C86.2485 50.686 86.3889 50.8298 86.5628 50.8298H90.8928C91.0666 50.8298 91.2071 50.686 91.2071 50.5122V42.7449C92.8588 44.594 94.8583 45.5001 97.2958 45.5001C101.826 45.5001 106.414 42.0127 106.414 35.3458C106.421 28.6776 101.833 25.1892 97.2991 25.1892L97.2958 25.1896ZM101.378 35.3458C101.378 38.7393 99.2886 41.1099 96.2927 41.1099C93.3336 41.1099 91.1001 38.6323 91.1001 35.3458C91.1001 32.0591 93.3336 29.5821 96.2927 29.5821C99.2385 29.5818 101.378 32.0052 101.378 35.3455V35.3458ZM118.167 25.1896C112.332 25.1896 107.761 29.6821 107.761 35.4184C107.761 41.0932 112.302 45.5369 118.096 45.5369C123.951 45.5369 128.535 41.0598 128.535 35.3458C128.535 29.6513 123.981 25.1902 118.167 25.1902V25.1896ZM118.167 41.1433C115.064 41.1433 112.723 38.649 112.723 35.3442C112.723 32.0243 114.984 29.6152 118.096 29.6152C121.219 29.6152 123.573 32.1085 123.573 35.4167C123.573 38.7359 121.3 41.1433 118.167 41.1433ZM140.994 25.5855H136.229V20.7151C136.229 20.5406 136.089 20.3982 135.915 20.3982H131.585C131.411 20.3982 131.267 20.5406 131.267 20.7151V25.5855H129.187C129.013 25.5855 128.873 25.7279 128.873 25.9028V29.6232C128.873 29.7978 129.013 29.9405 129.187 29.9405H131.267V39.5685C131.267 43.4571 133.203 45.4299 137.025 45.4299C138.576 45.4299 139.863 45.1089 141.077 44.4201C141.178 44.3666 141.238 44.2596 141.238 44.1459V40.6017C141.238 40.4947 141.181 40.391 141.087 40.3342C140.994 40.274 140.877 40.2707 140.78 40.3208C139.947 40.7388 139.141 40.9327 138.238 40.9327C136.851 40.9327 136.229 40.3008 136.229 38.8897V29.9422H140.994C141.168 29.9422 141.308 29.7998 141.308 29.6249V25.9048C141.315 25.7299 141.174 25.5875 140.997 25.5875L140.994 25.5855ZM157.591 25.6045V25.0063C157.591 23.2466 158.267 22.4619 159.778 22.4619C160.681 22.4619 161.406 22.6411 162.219 22.9119C162.319 22.9433 162.423 22.9276 162.503 22.8678C162.587 22.8079 162.634 22.712 162.634 22.6103V18.9624C162.634 18.823 162.547 18.6996 162.41 18.6585C161.554 18.4034 160.457 18.1416 158.812 18.1416C154.816 18.1416 152.7 20.3932 152.7 24.6506V25.5667H150.62C150.446 25.5667 150.302 25.7092 150.302 25.8837V29.6232C150.302 29.7978 150.446 29.9405 150.62 29.9405H152.7V44.7879C152.7 44.9651 152.843 45.1055 153.017 45.1055H157.344C157.521 45.1055 157.662 44.9651 157.662 44.7879V29.9415H161.704L167.896 44.7879C167.194 46.346 166.502 46.657 165.559 46.657C164.797 46.657 163.991 46.4296 163.172 45.9782C163.095 45.9381 163.001 45.9314 162.921 45.9548C162.838 45.9849 162.767 46.0451 162.734 46.1253L161.266 49.3453C161.196 49.4991 161.256 49.6763 161.403 49.7565C162.934 50.5857 164.315 50.9402 166.024 50.9402C169.221 50.9402 170.989 49.4489 172.544 45.4432L180.054 26.0379C180.094 25.9402 180.081 25.8299 180.02 25.7433C179.964 25.6574 179.867 25.6055 179.763 25.6055H175.256C175.119 25.6055 174.998 25.6915 174.955 25.8182L170.337 39.0034L165.282 25.8095C165.235 25.6868 165.118 25.6055 164.987 25.6055H157.591V25.6045ZM147.968 25.5855H143.638C143.465 25.5855 143.321 25.7279 143.321 25.9028V44.7879C143.321 44.9651 143.465 45.1055 143.638 45.1055H147.968C148.142 45.1055 148.286 44.9651 148.286 44.7879V25.9041C148.286 25.7292 148.146 25.5868 147.968 25.5868V25.5855ZM145.829 16.986C144.113 16.986 142.722 18.3743 142.722 20.0892C142.722 21.8052 144.113 23.1951 145.829 23.1951C147.544 23.1951 148.931 21.8052 148.931 20.0892C148.931 18.3746 147.54 16.986 145.829 16.986ZM183.752 31.6578C182.04 31.6578 180.706 30.2819 180.706 28.6111C180.706 26.9403 182.057 25.5487 183.769 25.5487C185.481 25.5487 186.815 26.9243 186.815 28.5937C186.815 30.2645 185.464 31.6578 183.752 31.6578ZM183.769 25.8516C182.207 25.8516 181.027 27.0921 181.027 28.6111C181.027 30.1294 182.2 31.3532 183.752 31.3532C185.313 31.3532 186.494 30.1137 186.494 28.5937C186.494 27.0754 185.32 25.8516 183.769 25.8516ZM184.444 28.907L185.307 30.1134H184.578L183.802 29.0067H183.137V30.1134H182.528V26.9156H183.953C184.698 26.9156 185.186 27.2957 185.186 27.9357C185.19 28.46 184.885 28.7803 184.447 28.907H184.444ZM183.929 27.4642H183.137V28.4757H183.929C184.324 28.4757 184.561 28.2821 184.561 27.9695C184.561 27.6405 184.324 27.4642 183.929 27.4642Z" fill="#1ED760"/>
</g>
<defs>
<clipPath id="clip0_152_817">
<rect width="186.667" height="64" fill="white"/>
</clipPath>
</defs>
</svg>
