<svg width="1440" height="7980" viewBox="0 0 1440 7980" fill="none" xmlns="http://www.w3.org/2000/svg">
<g clip-path="url(#clip0_318_2880)">
<g style="mix-blend-mode:hard-light" opacity="0.4">
<path fill-rule="evenodd" clip-rule="evenodd" d="M1470.1 6103.7C1453.89 6068.32 1411.79 6053.11 1376.63 6069.93L1155.66 6175.64C801.343 6345.16 377.046 6191.83 213.682 5835.25L167.57 5734.6C122.521 5636.27 165.828 5519.98 264.299 5474.87C362.77 5429.75 479.116 5472.9 524.166 5571.23L570.277 5671.88C642.479 5829.48 830.004 5897.24 986.6 5822.32L1207.57 5716.6C1440.45 5605.19 1719.32 5705.96 1826.69 5940.33C1934.07 6174.7 1828.27 6451.7 1591.82 6555.31L1367.45 6653.62C1208.45 6723.29 1137.3 6909.57 1209.51 7067.17L1254.21 7164.75C1299.26 7263.08 1255.95 7379.37 1157.48 7424.48C1059.01 7469.59 942.666 7426.45 897.616 7328.12L852.912 7230.54C689.547 6873.95 850.512 6452.5 1210.27 6294.86L1434.64 6196.54C1470.34 6180.9 1486.31 6139.08 1470.1 6103.7Z" fill="#FF9E9E"/>
</g>
</g>
<g clip-path="url(#clip1_318_2880)">
<g style="mix-blend-mode:multiply" opacity="0.08">
<path fill-rule="evenodd" clip-rule="evenodd" d="M717.015 7042.13C732.135 7072.01 768.839 7083.68 798.501 7068.04L984.93 6969.75C1283.86 6812.16 1653.76 6929.77 1806.14 7230.85L1849.16 7315.84C1891.18 7398.87 1857.84 7500.29 1774.69 7542.37C1691.55 7584.45 1590.08 7551.25 1548.06 7468.23L1505.05 7383.24C1437.7 7250.17 1274.22 7198.19 1142.1 7267.84L955.671 7366.13C759.196 7469.71 516.075 7392.41 415.92 7194.52C315.766 6996.63 397.442 6754.95 597.25 6657.96L786.85 6565.93C921.213 6500.71 976.137 6338.19 908.788 6205.11L867.088 6122.72C825.067 6039.69 858.405 5938.27 941.55 5896.19C1024.69 5854.11 1126.16 5887.31 1168.18 5970.33L1209.88 6052.73C1362.27 6353.81 1238 6721.53 933.989 6869.09L744.39 6961.13C714.225 6975.77 701.895 7012.25 717.015 7042.13Z" fill="url(#paint0_linear_318_2880)"/>
</g>
</g>
<g clip-path="url(#clip2_318_2880)">
<g style="mix-blend-mode:multiply" opacity="0.2">
<path fill-rule="evenodd" clip-rule="evenodd" d="M-58.9853 5243.13C-43.8649 5273.01 -7.16095 5284.68 22.5009 5269.04L208.93 5170.75C507.859 5013.16 877.761 5130.77 1030.14 5431.85L1073.16 5516.84C1115.18 5599.87 1081.84 5701.29 998.694 5743.37C915.549 5785.45 814.082 5752.25 772.06 5669.23L729.049 5584.24C661.701 5451.17 498.216 5399.19 366.1 5468.84L179.671 5567.13C-16.8037 5670.71 -259.925 5593.41 -360.08 5395.52C-460.234 5197.63 -378.558 4955.95 -178.75 4858.96L10.8495 4766.93C145.213 4701.71 200.137 4539.19 132.788 4406.11L91.0883 4323.72C49.067 4240.69 82.4045 4139.27 165.55 4097.19C248.695 4055.11 350.162 4088.31 392.183 4171.33L433.883 4253.73C586.266 4554.81 461.996 4922.53 157.989 5070.09L-31.6098 5162.13C-61.7748 5176.77 -74.1054 5213.25 -58.9853 5243.13Z" fill="url(#paint1_linear_318_2880)"/>
</g>
</g>
<g clip-path="url(#clip3_318_2880)">
<g clip-path="url(#clip4_318_2880)">
<g style="mix-blend-mode:multiply" opacity="0.08">
<path fill-rule="evenodd" clip-rule="evenodd" d="M342.461 1062.05C342.461 1095.54 369.94 1122.53 403.467 1121.97L614.188 1118.46C952.069 1112.83 1229 1384.81 1229 1722.26L1229 1817.51C1229 1910.56 1153.46 1986 1060.27 1986C967.082 1986 891.539 1910.56 891.539 1817.51L891.539 1722.26C891.539 1573.11 769.144 1452.91 619.812 1455.4L409.092 1458.91C187.016 1462.6 4.99997 1283.85 4.99996 1062.05C4.99995 840.264 187.01 661.511 409.082 665.202L619.808 668.705C769.144 671.187 891.539 550.982 891.539 401.836L891.539 309.493C891.539 216.437 967.082 141 1060.27 141C1153.46 141 1229 216.437 1229 309.493L1229 401.836C1229 739.289 952.073 1011.26 614.192 1005.64L403.465 1002.14C369.939 1001.58 342.461 1028.57 342.461 1062.05Z" fill="#FF6666"/>
</g>
</g>
<g style="mix-blend-mode:soft-light">
<path fill-rule="evenodd" clip-rule="evenodd" d="M342.461 1062.05C342.461 1095.54 369.94 1122.53 403.467 1121.97L614.188 1118.46C952.069 1112.83 1229 1384.81 1229 1722.26L1229 1817.51C1229 1910.56 1153.46 1986 1060.27 1986C967.082 1986 891.539 1910.56 891.539 1817.51L891.539 1722.26C891.539 1573.11 769.144 1452.91 619.812 1455.4L409.092 1458.91C187.016 1462.6 4.99997 1283.85 4.99996 1062.05C4.99995 840.264 187.01 661.511 409.082 665.202L619.808 668.705C769.144 671.187 891.539 550.982 891.539 401.836L891.539 309.493C891.539 216.437 967.082 141 1060.27 141C1153.46 141 1229 216.437 1229 309.493L1229 401.836C1229 739.289 952.073 1011.26 614.192 1005.64L403.465 1002.14C369.939 1001.58 342.461 1028.57 342.461 1062.05Z" fill="url(#paint2_linear_318_2880)"/>
</g>
</g>
<g clip-path="url(#clip5_318_2880)">
<g style="mix-blend-mode:multiply" opacity="0.08">
<path fill-rule="evenodd" clip-rule="evenodd" d="M1742.54 2158.05C1742.54 2191.54 1715.06 2218.53 1681.53 2217.97L1470.81 2214.46C1132.93 2208.83 856 2480.81 856 2818.26L856 2913.51C856 3006.56 931.543 3082 1024.73 3082C1117.92 3082 1193.46 3006.56 1193.46 2913.51L1193.46 2818.26C1193.46 2669.11 1315.86 2548.91 1465.19 2551.4L1675.91 2554.91C1897.98 2558.6 2080 2379.85 2080 2158.05C2080 1936.26 1897.99 1757.51 1675.92 1761.2L1465.19 1764.71C1315.86 1767.19 1193.46 1646.98 1193.46 1497.84L1193.46 1405.49C1193.46 1312.44 1117.92 1237 1024.73 1237C931.543 1237 856 1312.44 856 1405.49L856 1497.84C856 1835.29 1132.93 2107.26 1470.81 2101.64L1681.53 2098.14C1715.06 2097.58 1742.54 2124.57 1742.54 2158.05Z" fill="url(#paint3_linear_318_2880)"/>
</g>
</g>
<g style="mix-blend-mode:multiply" opacity="0.12">
<path fill-rule="evenodd" clip-rule="evenodd" d="M342.461 2116.95C342.461 2083.46 369.94 2056.47 403.467 2057.03L614.188 2060.54C952.069 2066.17 1229 1794.19 1229 1456.74L1229 1361.49C1229 1268.44 1153.46 1193 1060.27 1193C967.082 1193 891.539 1268.44 891.539 1361.49L891.539 1456.74C891.539 1605.89 769.144 1726.09 619.812 1723.6L409.092 1720.09C187.016 1716.4 4.99997 1895.15 4.99996 2116.95C4.99995 2338.74 187.01 2517.49 409.082 2513.8L619.808 2510.29C769.144 2507.81 891.539 2628.02 891.539 2777.16L891.539 2869.51C891.539 2962.56 967.082 3038 1060.27 3038C1153.46 3038 1229 2962.56 1229 2869.51L1229 2777.16C1229 2439.71 952.073 2167.74 614.192 2173.36L403.465 2176.86C369.939 2177.42 342.461 2150.43 342.461 2116.95Z" fill="url(#paint4_linear_318_2880)"/>
</g>
<g clip-path="url(#clip6_318_2880)">
<g style="mix-blend-mode:multiply" opacity="0.12">
<path fill-rule="evenodd" clip-rule="evenodd" d="M812.461 3619.05C812.461 3652.54 839.94 3679.53 873.467 3678.97L1084.19 3675.46C1422.07 3669.83 1699 3941.81 1699 4279.26L1699 4374.51C1699 4467.56 1623.46 4543 1530.27 4543C1437.08 4543 1361.54 4467.56 1361.54 4374.51L1361.54 4279.26C1361.54 4130.11 1239.14 4009.91 1089.81 4012.4L879.092 4015.91C657.016 4019.6 475 3840.85 475 3619.05C475 3397.26 657.01 3218.51 879.082 3222.2L1089.81 3225.71C1239.14 3228.19 1361.54 3107.98 1361.54 2958.84L1361.54 2866.49C1361.54 2773.44 1437.08 2698 1530.27 2698C1623.46 2698 1699 2773.44 1699 2866.49L1699 2958.84C1699 3296.29 1422.07 3568.26 1084.19 3562.64L873.465 3559.14C839.939 3558.58 812.461 3585.57 812.461 3619.05Z" fill="url(#paint5_linear_318_2880)"/>
</g>
</g>
<g clip-path="url(#clip7_318_2880)">
<g style="mix-blend-mode:soft-light">
<path fill-rule="evenodd" clip-rule="evenodd" d="M1271.47 3976.07C1291.31 3954.66 1289.72 3921.13 1267.95 3901.62L1131.11 3779.03C911.711 3582.46 895.703 3244.51 1095.58 3028.76L1151.99 2967.86C1207.11 2908.36 1300.1 2904.89 1359.69 2960.09C1419.28 3015.3 1422.91 3108.28 1367.8 3167.78L1311.38 3228.68C1223.04 3324.03 1230.12 3473.39 1327.09 3560.27L1463.92 3682.87C1608.12 3812.07 1618.64 4034.18 1487.28 4175.99C1355.91 4317.79 1133.64 4324.25 993.815 4190.33L861.132 4063.25C767.103 3973.19 617.636 3977.54 529.297 4072.89L474.602 4131.93C419.485 4191.43 326.495 4194.91 266.902 4139.7C207.31 4084.49 203.681 3991.51 258.798 3932.01L313.493 3872.97C513.366 3657.22 851.547 3647.39 1064.29 3851.16L1196.98 3978.23C1218.08 3998.45 1251.64 3997.48 1271.47 3976.07Z" fill="#FF6666"/>
</g>
</g>
<defs>
<linearGradient id="paint0_linear_318_2880" x1="546.049" y1="6096.36" x2="1379.19" y2="7742.53" gradientUnits="userSpaceOnUse">
<stop stop-color="#FF6666"/>
<stop offset="1" stop-color="white" stop-opacity="0"/>
</linearGradient>
<linearGradient id="paint1_linear_318_2880" x1="-229.951" y1="4297.36" x2="603.193" y2="5943.53" gradientUnits="userSpaceOnUse">
<stop stop-color="#FF6666"/>
<stop offset="1" stop-color="white" stop-opacity="0"/>
</linearGradient>
<linearGradient id="paint2_linear_318_2880" x1="617" y1="141" x2="617" y2="1986" gradientUnits="userSpaceOnUse">
<stop stop-color="#FF6666"/>
<stop offset="1" stop-color="white" stop-opacity="0"/>
</linearGradient>
<linearGradient id="paint3_linear_318_2880" x1="1468" y1="1237" x2="1468" y2="3082" gradientUnits="userSpaceOnUse">
<stop stop-color="#FF6666"/>
<stop offset="1" stop-color="white" stop-opacity="0"/>
</linearGradient>
<linearGradient id="paint4_linear_318_2880" x1="617" y1="3038" x2="617" y2="1193" gradientUnits="userSpaceOnUse">
<stop stop-color="#FF6666" stop-opacity="0.64"/>
<stop offset="1" stop-color="white" stop-opacity="0"/>
</linearGradient>
<linearGradient id="paint5_linear_318_2880" x1="1087" y1="2698" x2="1087" y2="4543" gradientUnits="userSpaceOnUse">
<stop stop-color="#FF6666" stop-opacity="0.64"/>
<stop offset="1" stop-color="white" stop-opacity="0"/>
</linearGradient>
<clipPath id="clip0_318_2880">
<rect width="1354" height="947" fill="white" transform="translate(86 5699)"/>
</clipPath>
<clipPath id="clip1_318_2880">
<rect width="1440" height="1334" fill="white" transform="translate(0 6646)"/>
</clipPath>
<clipPath id="clip2_318_2880">
<rect width="1440" height="1373" fill="white" transform="translate(0 4326)"/>
</clipPath>
<clipPath id="clip3_318_2880">
<rect width="1440" height="1616" fill="white"/>
</clipPath>
<clipPath id="clip4_318_2880">
<rect width="1224" height="681" fill="white" transform="translate(5 935)"/>
</clipPath>
<clipPath id="clip5_318_2880">
<rect width="1440" height="838" fill="white" transform="translate(0 1616)"/>
</clipPath>
<clipPath id="clip6_318_2880">
<rect width="965" height="602" fill="white" transform="translate(475 2698)"/>
</clipPath>
<clipPath id="clip7_318_2880">
<rect width="1440" height="1026" fill="white" transform="translate(0 3300)"/>
</clipPath>
</defs>
</svg>
