<svg width="1440" height="838" viewBox="0 0 1440 838" fill="none" xmlns="http://www.w3.org/2000/svg">
<g clip-path="url(#clip0_318_2687)">
<g style="mix-blend-mode:multiply" opacity="0.08">
<path fill-rule="evenodd" clip-rule="evenodd" d="M1742.54 542.055C1742.54 575.539 1715.06 602.525 1681.53 601.967L1470.81 598.46C1132.93 592.835 856 864.805 856 1202.26L856 1297.51C856 1390.56 931.543 1466 1024.73 1466C1117.92 1466 1193.46 1390.56 1193.46 1297.51L1193.46 1202.26C1193.46 1053.11 1315.86 932.913 1465.19 935.399L1675.91 938.907C1897.98 942.604 2080 763.849 2080 542.055C2080 320.264 1897.99 141.511 1675.92 145.202L1465.19 148.705C1315.86 151.187 1193.46 30.9823 1193.46 -118.164L1193.46 -210.507C1193.46 -303.563 1117.92 -379 1024.73 -379C931.543 -379 856 -303.563 856 -210.507L856 -118.164C856 219.289 1132.93 491.261 1470.81 485.645L1681.53 482.142C1715.06 481.585 1742.54 508.571 1742.54 542.055Z" fill="url(#paint0_linear_318_2687)"/>
</g>
</g>
<defs>
<linearGradient id="paint0_linear_318_2687" x1="1468" y1="-379" x2="1468" y2="1466" gradientUnits="userSpaceOnUse">
<stop stop-color="#FF6666"/>
<stop offset="1" stop-color="white" stop-opacity="0"/>
</linearGradient>
<clipPath id="clip0_318_2687">
<rect width="1440" height="838" fill="white"/>
</clipPath>
</defs>
</svg>
