<svg width="1440" height="1616" viewBox="0 0 1440 1616" fill="none" xmlns="http://www.w3.org/2000/svg">
<g clip-path="url(#clip0_318_2648)">
<g clip-path="url(#clip1_318_2648)">
<g style="mix-blend-mode:multiply" opacity="0.08">
<path fill-rule="evenodd" clip-rule="evenodd" d="M342.461 1062.05C342.461 1095.54 369.94 1122.53 403.467 1121.97L614.188 1118.46C952.069 1112.83 1229 1384.81 1229 1722.26L1229 1817.51C1229 1910.56 1153.46 1986 1060.27 1986C967.082 1986 891.539 1910.56 891.539 1817.51L891.539 1722.26C891.539 1573.11 769.144 1452.91 619.812 1455.4L409.092 1458.91C187.016 1462.6 4.99997 1283.85 4.99996 1062.05C4.99995 840.264 187.01 661.511 409.082 665.202L619.808 668.705C769.144 671.187 891.539 550.982 891.539 401.836L891.539 309.493C891.539 216.437 967.082 141 1060.27 141C1153.46 141 1229 216.437 1229 309.493L1229 401.836C1229 739.289 952.073 1011.26 614.192 1005.64L403.465 1002.14C369.939 1001.58 342.461 1028.57 342.461 1062.05Z" fill="#FF6666"/>
</g>
</g>
<g style="mix-blend-mode:soft-light">
<path fill-rule="evenodd" clip-rule="evenodd" d="M342.461 1062.05C342.461 1095.54 369.94 1122.53 403.467 1121.97L614.188 1118.46C952.069 1112.83 1229 1384.81 1229 1722.26L1229 1817.51C1229 1910.56 1153.46 1986 1060.27 1986C967.082 1986 891.539 1910.56 891.539 1817.51L891.539 1722.26C891.539 1573.11 769.144 1452.91 619.812 1455.4L409.092 1458.91C187.016 1462.6 4.99997 1283.85 4.99996 1062.05C4.99995 840.264 187.01 661.511 409.082 665.202L619.808 668.705C769.144 671.187 891.539 550.982 891.539 401.836L891.539 309.493C891.539 216.437 967.082 141 1060.27 141C1153.46 141 1229 216.437 1229 309.493L1229 401.836C1229 739.289 952.073 1011.26 614.192 1005.64L403.465 1002.14C369.939 1001.58 342.461 1028.57 342.461 1062.05Z" fill="url(#paint0_linear_318_2648)"/>
</g>
</g>
<defs>
<linearGradient id="paint0_linear_318_2648" x1="617" y1="141" x2="617" y2="1986" gradientUnits="userSpaceOnUse">
<stop stop-color="#FF6666"/>
<stop offset="1" stop-color="white" stop-opacity="0"/>
</linearGradient>
<clipPath id="clip0_318_2648">
<rect width="1440" height="1616" fill="white"/>
</clipPath>
<clipPath id="clip1_318_2648">
<rect width="1224" height="681" fill="white" transform="translate(5 935)"/>
</clipPath>
</defs>
</svg>
